<svg width="90" height="64" viewBox="0 0 90 64" fill="none" xmlns="http://www.w3.org/2000/svg">
<path d="M88.1194 10.2507C87.0843 6.35333 84.0346 3.28386 80.1624 2.2422C73.1438 0.349365 45 0.349365 45 0.349365C45 0.349365 16.8564 0.349365 9.83759 2.2422C5.9654 3.28403 2.91571 6.35333 1.88064 10.2507C0 17.315 0 32.0539 0 32.0539C0 32.0539 0 46.7928 1.88064 53.8571C2.91571 57.7544 5.9654 60.696 9.83759 61.7377C16.8564 63.6305 45 63.6305 45 63.6305C45 63.6305 73.1436 63.6305 80.1624 61.7377C84.0346 60.696 87.0843 57.7544 88.1194 53.8571C90 46.7928 90 32.0539 90 32.0539C90 32.0539 90 17.315 88.1194 10.2507ZM35.7954 45.4357V18.6721L59.318 32.0542L35.7954 45.4357Z" fill="#0500CF"/>
</svg>
