<svg width="90" height="90" viewBox="0 0 90 90" fill="none" xmlns="http://www.w3.org/2000/svg">
<path d="M45.01 21.9202C32.2404 21.9202 21.9403 32.2203 21.9403 44.99C21.9403 57.7596 32.2404 68.0597 45.01 68.0597C57.7797 68.0597 68.0798 57.7596 68.0798 44.99C68.0798 32.2203 57.7797 21.9202 45.01 21.9202ZM45.01 59.9883C36.7579 59.9883 30.0117 53.2621 30.0117 44.99C30.0117 36.7178 36.7379 29.9916 45.01 29.9916C53.2822 29.9916 60.0084 36.7178 60.0084 44.99C60.0084 53.2621 53.2621 59.9883 45.01 59.9883ZM74.4044 20.9766C74.4044 23.9682 71.995 26.3575 69.0234 26.3575C66.0318 26.3575 63.6425 23.9481 63.6425 20.9766C63.6425 18.005 66.0519 15.5956 69.0234 15.5956C71.995 15.5956 74.4044 18.005 74.4044 20.9766ZM89.6838 26.4378C89.3424 19.2298 87.696 12.845 82.4155 7.58449C77.155 2.32404 70.7702 0.677635 63.5622 0.31623C56.1333 -0.10541 33.8667 -0.10541 26.4378 0.31623C19.2499 0.657557 12.865 2.30396 7.5845 7.56442C2.30396 12.8249 0.677635 19.2097 0.31623 26.4177C-0.10541 33.8466 -0.10541 56.1132 0.31623 63.5421C0.657557 70.7501 2.30396 77.135 7.5845 82.3954C12.865 87.6559 19.2298 89.3023 26.4378 89.6637C33.8667 90.0853 56.1333 90.0853 63.5622 89.6637C70.7702 89.3224 77.155 87.676 82.4155 82.3954C87.676 77.135 89.3224 70.7501 89.6838 63.5421C90.1054 56.1132 90.1054 33.8667 89.6838 26.4378ZM80.0864 71.5131C78.5204 75.4484 75.4886 78.4802 71.5332 80.0664C65.6102 82.4155 51.5555 81.8734 45.01 81.8734C38.4646 81.8734 24.3898 82.3954 18.4869 80.0664C14.5516 78.5003 11.5198 75.4685 9.93363 71.5131C7.5845 65.5901 8.1266 51.5354 8.1266 44.99C8.1266 38.4445 7.60457 24.3698 9.93363 18.4668C11.4997 14.5315 14.5315 11.4997 18.4869 9.91355C24.4099 7.56442 38.4646 8.10652 45.01 8.10652C51.5555 8.10652 65.6302 7.58449 71.5332 9.91355C75.4685 11.4796 78.5003 14.5114 80.0864 18.4668C82.4356 24.3898 81.8935 38.4445 81.8935 44.99C81.8935 51.5354 82.4356 65.6101 80.0864 71.5131Z" fill="#0500CF"/>
</svg>
