<svg width="90" height="74" viewBox="0 0 90 74" fill="none" xmlns="http://www.w3.org/2000/svg">
<path d="M80.7489 18.6586C80.8061 19.4581 80.8061 20.2577 80.8061 21.0572C80.8061 45.4417 62.2465 73.5383 28.325 73.5383C17.8744 73.5383 8.1663 70.5115 0 65.2579C1.48483 65.4291 2.91236 65.4862 4.45431 65.4862C13.0773 65.4862 21.0153 62.5739 27.3541 57.6056C19.245 57.4342 12.4492 52.1233 10.1078 44.8136C11.25 44.9848 12.3921 45.099 13.5915 45.099C15.2475 45.099 16.9037 44.8705 18.4455 44.471C9.99373 42.7576 3.65468 35.3338 3.65468 26.3681V26.1397C6.11018 27.5103 8.96576 28.3669 11.9922 28.481C7.02389 25.1687 3.76894 19.5152 3.76894 13.1192C3.76894 9.69288 4.68248 6.55201 6.28157 3.81086C15.3616 15.0038 29.0102 22.3133 44.3146 23.1129C44.0292 21.7424 43.8578 20.3149 43.8578 18.8872C43.8578 8.72204 52.0812 0.44165 62.3033 0.44165C67.6142 0.44165 72.4111 2.66881 75.7805 6.26654C79.9491 5.46708 83.9466 3.92512 87.4874 1.81222C86.1166 6.09532 83.2043 9.69305 79.3782 11.9772C83.0902 11.5776 86.6879 10.5495 90 9.12194C87.4877 12.7766 84.3467 16.0316 80.7489 18.6586Z" fill="#0500CF"/>
</svg>
